<svg width="40" height="48" viewBox="0 0 40 48" fill="none" xmlns="http://www.w3.org/2000/svg">
<rect width="40" height="48" rx="8" fill="#EBE7FD"/>
<path d="M25.3905 27.67L21.3505 24H18.6405L14.6005 27.67C13.4705 28.69 13.1005 30.26 13.6505 31.68C14.2005 33.09 15.5405 34 17.0505 34H22.9405C24.4605 34 25.7905 33.09 26.3405 31.68C26.8905 30.26 26.5205 28.69 25.3905 27.67ZM21.8205 30.14H18.1805C17.8005 30.14 17.5005 29.83 17.5005 29.46C17.5005 29.09 17.8105 28.78 18.1805 28.78H21.8205C22.2005 28.78 22.5005 29.09 22.5005 29.46C22.5005 29.83 22.1905 30.14 21.8205 30.14Z" fill="#1F0990"/>
<path d="M26.3497 16.32C25.7997 14.91 24.4597 14 22.9497 14H17.0497C15.5397 14 14.1997 14.91 13.6497 16.32C13.1097 17.74 13.4797 19.31 14.6097 20.33L18.6497 24H21.3597L25.3997 20.33C26.5197 19.31 26.8897 17.74 26.3497 16.32ZM21.8197 19.23H18.1797C17.7997 19.23 17.4997 18.92 17.4997 18.55C17.4997 18.18 17.8097 17.87 18.1797 17.87H21.8197C22.1997 17.87 22.4997 18.18 22.4997 18.55C22.4997 18.92 22.1897 19.23 21.8197 19.23Z" fill="#1F0990"/>
</svg>
