<svg width="74" height="120" viewBox="0 0 74 120" fill="none" xmlns="http://www.w3.org/2000/svg">
<rect x="-2.66797" y="120" width="3.33333" height="3.33333" rx="1.66667" transform="rotate(-90 -2.66797 120)" fill="#EBE7FD"/>
<rect x="-2.62891" y="113.334" width="3.25397" height="3.25397" rx="1.62698" transform="rotate(-90 -2.62891 113.334)" fill="#EBE7FD"/>
<rect x="-2.58984" y="106.746" width="3.1746" height="3.1746" rx="1.5873" transform="rotate(-90 -2.58984 106.746)" fill="#EBE7FD"/>
<rect x="-2.55078" y="100.238" width="3.09524" height="3.09524" rx="1.54762" transform="rotate(-90 -2.55078 100.238)" fill="#EBE7FD"/>
<rect x="-2.50781" y="93.8086" width="3.01587" height="3.01587" rx="1.50794" transform="rotate(-90 -2.50781 93.8086)" fill="#EBE7FD"/>
<rect x="-2.46875" y="87.4609" width="2.93651" height="2.93651" rx="1.46825" transform="rotate(-90 -2.46875 87.4609)" fill="#EBE7FD"/>
<rect x="-2.42969" y="81.1914" width="2.85714" height="2.85714" rx="1.42857" transform="rotate(-90 -2.42969 81.1914)" fill="#EBE7FD"/>
<rect x="-2.39062" y="75" width="2.77778" height="2.77778" rx="1.38889" transform="rotate(-90 -2.39062 75)" fill="#EBE7FD"/>
<rect x="-2.35156" y="68.8887" width="2.69841" height="2.69841" rx="1.34921" transform="rotate(-90 -2.35156 68.8887)" fill="#EBE7FD"/>
<rect x="-2.3125" y="62.8574" width="2.61905" height="2.61905" rx="1.30952" transform="rotate(-90 -2.3125 62.8574)" fill="#EBE7FD"/>
<rect x="-2.26953" y="56.9043" width="2.53968" height="2.53968" rx="1.26984" transform="rotate(-90 -2.26953 56.9043)" fill="#EBE7FD"/>
<rect x="-2.23047" y="51.0312" width="2.46032" height="2.46032" rx="1.23016" transform="rotate(-90 -2.23047 51.0312)" fill="#EBE7FD"/>
<rect x="-2.19141" y="45.2383" width="2.38095" height="2.38095" rx="1.19048" transform="rotate(-90 -2.19141 45.2383)" fill="#EBE7FD"/>
<rect x="-2.15234" y="39.5234" width="2.30159" height="2.30159" rx="1.15079" transform="rotate(-90 -2.15234 39.5234)" fill="#EBE7FD"/>
<rect x="-2.11328" y="33.8887" width="2.22222" height="2.22222" rx="1.11111" transform="rotate(-90 -2.11328 33.8887)" fill="#EBE7FD"/>
<rect x="-2.07422" y="28.334" width="2.14286" height="2.14286" rx="1.07143" transform="rotate(-90 -2.07422 28.334)" fill="#EBE7FD"/>
<rect x="-2.03125" y="22.8574" width="2.06349" height="2.06349" rx="1.03175" transform="rotate(-90 -2.03125 22.8574)" fill="#EBE7FD"/>
<rect x="4" y="120" width="3.33333" height="3.33333" rx="1.66667" transform="rotate(-90 4 120)" fill="#EBE7FD"/>
<rect x="4.03906" y="113.334" width="3.25397" height="3.25397" rx="1.62698" transform="rotate(-90 4.03906 113.334)" fill="#EBE7FD"/>
<rect x="4.07812" y="106.746" width="3.1746" height="3.1746" rx="1.5873" transform="rotate(-90 4.07812 106.746)" fill="#EBE7FD"/>
<rect x="4.11719" y="100.238" width="3.09524" height="3.09524" rx="1.54762" transform="rotate(-90 4.11719 100.238)" fill="#EBE7FD"/>
<rect x="4.16016" y="93.8086" width="3.01587" height="3.01587" rx="1.50794" transform="rotate(-90 4.16016 93.8086)" fill="#EBE7FD"/>
<rect x="4.19922" y="87.4609" width="2.93651" height="2.93651" rx="1.46825" transform="rotate(-90 4.19922 87.4609)" fill="#EBE7FD"/>
<rect x="4.23828" y="81.1914" width="2.85714" height="2.85714" rx="1.42857" transform="rotate(-90 4.23828 81.1914)" fill="#EBE7FD"/>
<rect x="4.27734" y="75" width="2.77778" height="2.77778" rx="1.38889" transform="rotate(-90 4.27734 75)" fill="#EBE7FD"/>
<rect x="4.31641" y="68.8887" width="2.69841" height="2.69841" rx="1.34921" transform="rotate(-90 4.31641 68.8887)" fill="#EBE7FD"/>
<rect x="4.35547" y="62.8574" width="2.61905" height="2.61905" rx="1.30952" transform="rotate(-90 4.35547 62.8574)" fill="#EBE7FD"/>
<rect x="4.39844" y="56.9043" width="2.53968" height="2.53968" rx="1.26984" transform="rotate(-90 4.39844 56.9043)" fill="#EBE7FD"/>
<rect x="4.4375" y="51.0312" width="2.46032" height="2.46032" rx="1.23016" transform="rotate(-90 4.4375 51.0312)" fill="#EBE7FD"/>
<rect x="4.47656" y="45.2383" width="2.38095" height="2.38095" rx="1.19048" transform="rotate(-90 4.47656 45.2383)" fill="#EBE7FD"/>
<rect x="4.51562" y="39.5234" width="2.30159" height="2.30159" rx="1.15079" transform="rotate(-90 4.51562 39.5234)" fill="#EBE7FD"/>
<rect x="4.55469" y="33.8887" width="2.22222" height="2.22222" rx="1.11111" transform="rotate(-90 4.55469 33.8887)" fill="#EBE7FD"/>
<rect x="4.59375" y="28.334" width="2.14286" height="2.14286" rx="1.07143" transform="rotate(-90 4.59375 28.334)" fill="#EBE7FD"/>
<rect x="4.63281" y="22.8574" width="2.06349" height="2.06349" rx="1.03175" transform="rotate(-90 4.63281 22.8574)" fill="#EBE7FD"/>
<rect x="4.67578" y="17.4609" width="1.98413" height="1.98413" rx="0.992063" transform="rotate(-90 4.67578 17.4609)" fill="#EBE7FD"/>
<rect x="4.71484" y="12.1426" width="1.90476" height="1.90476" rx="0.952381" transform="rotate(-90 4.71484 12.1426)" fill="#EBE7FD"/>
<rect x="4.75391" y="6.9043" width="1.8254" height="1.8254" rx="0.912698" transform="rotate(-90 4.75391 6.9043)" fill="#EBE7FD"/>
<rect x="4.79297" y="1.74609" width="1.74603" height="1.74603" rx="0.873016" transform="rotate(-90 4.79297 1.74609)" fill="#EBE7FD"/>
<rect x="10.668" y="120" width="3.33333" height="3.33333" rx="1.66667" transform="rotate(-90 10.668 120)" fill="#EBE7FD"/>
<rect x="10.707" y="113.334" width="3.25397" height="3.25397" rx="1.62698" transform="rotate(-90 10.707 113.334)" fill="#EBE7FD"/>
<rect x="10.7461" y="106.746" width="3.1746" height="3.1746" rx="1.5873" transform="rotate(-90 10.7461 106.746)" fill="#EBE7FD"/>
<rect x="10.7852" y="100.238" width="3.09524" height="3.09524" rx="1.54762" transform="rotate(-90 10.7852 100.238)" fill="#EBE7FD"/>
<rect x="10.8281" y="93.8105" width="3.01587" height="3.01587" rx="1.50794" transform="rotate(-90 10.8281 93.8105)" fill="#EBE7FD"/>
<rect x="10.8672" y="87.4609" width="2.93651" height="2.93651" rx="1.46825" transform="rotate(-90 10.8672 87.4609)" fill="#EBE7FD"/>
<rect x="10.9062" y="81.1914" width="2.85714" height="2.85714" rx="1.42857" transform="rotate(-90 10.9062 81.1914)" fill="#EBE7FD"/>
<rect x="10.9453" y="75" width="2.77778" height="2.77778" rx="1.38889" transform="rotate(-90 10.9453 75)" fill="#EBE7FD"/>
<rect x="10.9844" y="68.8887" width="2.69841" height="2.69841" rx="1.34921" transform="rotate(-90 10.9844 68.8887)" fill="#EBE7FD"/>
<rect x="11.0234" y="62.8574" width="2.61905" height="2.61905" rx="1.30952" transform="rotate(-90 11.0234 62.8574)" fill="#EBE7FD"/>
<rect x="11.0664" y="56.9043" width="2.53968" height="2.53968" rx="1.26984" transform="rotate(-90 11.0664 56.9043)" fill="#EBE7FD"/>
<rect x="11.1055" y="51.0312" width="2.46032" height="2.46032" rx="1.23016" transform="rotate(-90 11.1055 51.0312)" fill="#EBE7FD"/>
<rect x="11.1445" y="45.2383" width="2.38095" height="2.38095" rx="1.19048" transform="rotate(-90 11.1445 45.2383)" fill="#EBE7FD"/>
<rect x="11.1836" y="39.5234" width="2.30159" height="2.30159" rx="1.15079" transform="rotate(-90 11.1836 39.5234)" fill="#EBE7FD"/>
<rect x="11.2227" y="33.8887" width="2.22222" height="2.22222" rx="1.11111" transform="rotate(-90 11.2227 33.8887)" fill="#EBE7FD"/>
<rect x="11.2617" y="28.334" width="2.14286" height="2.14286" rx="1.07143" transform="rotate(-90 11.2617 28.334)" fill="#EBE7FD"/>
<rect x="11.3047" y="22.8574" width="2.06349" height="2.06349" rx="1.03175" transform="rotate(-90 11.3047 22.8574)" fill="#EBE7FD"/>
<rect x="11.3438" y="17.4609" width="1.98413" height="1.98413" rx="0.992063" transform="rotate(-90 11.3438 17.4609)" fill="#EBE7FD"/>
<rect x="11.3828" y="12.1426" width="1.90476" height="1.90476" rx="0.952381" transform="rotate(-90 11.3828 12.1426)" fill="#EBE7FD"/>
<rect x="11.4219" y="6.9043" width="1.8254" height="1.8254" rx="0.912698" transform="rotate(-90 11.4219 6.9043)" fill="#EBE7FD"/>
<rect x="11.4609" y="1.74609" width="1.74603" height="1.74603" rx="0.873016" transform="rotate(-90 11.4609 1.74609)" fill="#EBE7FD"/>
<rect x="17.332" y="120" width="3.33333" height="3.33333" rx="1.66667" transform="rotate(-90 17.332 120)" fill="#EBE7FD"/>
<rect x="17.3711" y="113.334" width="3.25397" height="3.25397" rx="1.62698" transform="rotate(-90 17.3711 113.334)" fill="#EBE7FD"/>
<rect x="17.4102" y="106.746" width="3.1746" height="3.1746" rx="1.5873" transform="rotate(-90 17.4102 106.746)" fill="#EBE7FD"/>
<rect x="17.4492" y="100.238" width="3.09524" height="3.09524" rx="1.54762" transform="rotate(-90 17.4492 100.238)" fill="#EBE7FD"/>
<rect x="17.4922" y="93.8086" width="3.01587" height="3.01587" rx="1.50794" transform="rotate(-90 17.4922 93.8086)" fill="#EBE7FD"/>
<rect x="17.5312" y="87.4609" width="2.93651" height="2.93651" rx="1.46825" transform="rotate(-90 17.5312 87.4609)" fill="#EBE7FD"/>
<rect x="17.5703" y="81.1914" width="2.85714" height="2.85714" rx="1.42857" transform="rotate(-90 17.5703 81.1914)" fill="#EBE7FD"/>
<rect x="17.6094" y="75" width="2.77778" height="2.77778" rx="1.38889" transform="rotate(-90 17.6094 75)" fill="#EBE7FD"/>
<rect x="17.6484" y="68.8887" width="2.69841" height="2.69841" rx="1.34921" transform="rotate(-90 17.6484 68.8887)" fill="#EBE7FD"/>
<rect x="17.6875" y="62.8574" width="2.61905" height="2.61905" rx="1.30952" transform="rotate(-90 17.6875 62.8574)" fill="#EBE7FD"/>
<rect x="17.7305" y="56.9043" width="2.53968" height="2.53968" rx="1.26984" transform="rotate(-90 17.7305 56.9043)" fill="#EBE7FD"/>
<rect x="17.7695" y="51.0312" width="2.46032" height="2.46032" rx="1.23016" transform="rotate(-90 17.7695 51.0312)" fill="#EBE7FD"/>
<rect x="17.8086" y="45.2383" width="2.38095" height="2.38095" rx="1.19048" transform="rotate(-90 17.8086 45.2383)" fill="#EBE7FD"/>
<rect x="17.8477" y="39.5234" width="2.30159" height="2.30159" rx="1.15079" transform="rotate(-90 17.8477 39.5234)" fill="#EBE7FD"/>
<rect x="17.8867" y="33.8887" width="2.22222" height="2.22222" rx="1.11111" transform="rotate(-90 17.8867 33.8887)" fill="#EBE7FD"/>
<rect x="17.9258" y="28.334" width="2.14286" height="2.14286" rx="1.07143" transform="rotate(-90 17.9258 28.334)" fill="#EBE7FD"/>
<rect x="17.9688" y="22.8574" width="2.06349" height="2.06349" rx="1.03175" transform="rotate(-90 17.9688 22.8574)" fill="#EBE7FD"/>
<rect x="18.0078" y="17.4609" width="1.98413" height="1.98413" rx="0.992063" transform="rotate(-90 18.0078 17.4609)" fill="#EBE7FD"/>
<rect x="18.0469" y="12.1426" width="1.90476" height="1.90476" rx="0.952381" transform="rotate(-90 18.0469 12.1426)" fill="#EBE7FD"/>
<rect x="18.0859" y="6.9043" width="1.8254" height="1.8254" rx="0.912698" transform="rotate(-90 18.0859 6.9043)" fill="#EBE7FD"/>
<rect x="18.125" y="1.74609" width="1.74603" height="1.74603" rx="0.873016" transform="rotate(-90 18.125 1.74609)" fill="#EBE7FD"/>
<rect x="24" y="120" width="3.33333" height="3.33333" rx="1.66667" transform="rotate(-90 24 120)" fill="#EBE7FD"/>
<rect x="24.0391" y="113.334" width="3.25397" height="3.25397" rx="1.62698" transform="rotate(-90 24.0391 113.334)" fill="#EBE7FD"/>
<rect x="24.0781" y="106.746" width="3.1746" height="3.1746" rx="1.5873" transform="rotate(-90 24.0781 106.746)" fill="#EBE7FD"/>
<rect x="24.1172" y="100.238" width="3.09524" height="3.09524" rx="1.54762" transform="rotate(-90 24.1172 100.238)" fill="#EBE7FD"/>
<rect x="24.1602" y="93.8086" width="3.01587" height="3.01587" rx="1.50794" transform="rotate(-90 24.1602 93.8086)" fill="#EBE7FD"/>
<rect x="24.1992" y="87.4609" width="2.93651" height="2.93651" rx="1.46825" transform="rotate(-90 24.1992 87.4609)" fill="#EBE7FD"/>
<rect x="24.2383" y="81.1914" width="2.85714" height="2.85714" rx="1.42857" transform="rotate(-90 24.2383 81.1914)" fill="#EBE7FD"/>
<rect x="24.2773" y="75" width="2.77778" height="2.77778" rx="1.38889" transform="rotate(-90 24.2773 75)" fill="#EBE7FD"/>
<rect x="24.3164" y="68.8887" width="2.69841" height="2.69841" rx="1.34921" transform="rotate(-90 24.3164 68.8887)" fill="#EBE7FD"/>
<rect x="24.3555" y="62.8574" width="2.61905" height="2.61905" rx="1.30952" transform="rotate(-90 24.3555 62.8574)" fill="#EBE7FD"/>
<rect x="24.3984" y="56.9043" width="2.53968" height="2.53968" rx="1.26984" transform="rotate(-90 24.3984 56.9043)" fill="#EBE7FD"/>
<rect x="24.4375" y="51.0312" width="2.46032" height="2.46032" rx="1.23016" transform="rotate(-90 24.4375 51.0312)" fill="#EBE7FD"/>
<rect x="24.4766" y="45.2383" width="2.38095" height="2.38095" rx="1.19048" transform="rotate(-90 24.4766 45.2383)" fill="#EBE7FD"/>
<rect x="24.5156" y="39.5234" width="2.30159" height="2.30159" rx="1.15079" transform="rotate(-90 24.5156 39.5234)" fill="#EBE7FD"/>
<rect x="24.5547" y="33.8887" width="2.22222" height="2.22222" rx="1.11111" transform="rotate(-90 24.5547 33.8887)" fill="#EBE7FD"/>
<rect x="24.5938" y="28.334" width="2.14286" height="2.14286" rx="1.07143" transform="rotate(-90 24.5938 28.334)" fill="#EBE7FD"/>
<rect x="24.6367" y="22.8574" width="2.06349" height="2.06349" rx="1.03175" transform="rotate(-90 24.6367 22.8574)" fill="#EBE7FD"/>
<rect x="24.6758" y="17.4609" width="1.98413" height="1.98413" rx="0.992063" transform="rotate(-90 24.6758 17.4609)" fill="#EBE7FD"/>
<rect x="24.7148" y="12.1426" width="1.90476" height="1.90476" rx="0.952381" transform="rotate(-90 24.7148 12.1426)" fill="#EBE7FD"/>
<rect x="24.7539" y="6.9043" width="1.8254" height="1.8254" rx="0.912698" transform="rotate(-90 24.7539 6.9043)" fill="#EBE7FD"/>
<rect x="24.793" y="1.74609" width="1.74603" height="1.74603" rx="0.873016" transform="rotate(-90 24.793 1.74609)" fill="#EBE7FD"/>
<rect x="30.668" y="120" width="3.33333" height="3.33333" rx="1.66667" transform="rotate(-90 30.668 120)" fill="#EBE7FD"/>
<rect x="30.707" y="113.334" width="3.25397" height="3.25397" rx="1.62698" transform="rotate(-90 30.707 113.334)" fill="#EBE7FD"/>
<rect x="30.7461" y="106.746" width="3.1746" height="3.1746" rx="1.5873" transform="rotate(-90 30.7461 106.746)" fill="#EBE7FD"/>
<rect x="30.7852" y="100.238" width="3.09524" height="3.09524" rx="1.54762" transform="rotate(-90 30.7852 100.238)" fill="#EBE7FD"/>
<rect x="30.8281" y="93.8105" width="3.01587" height="3.01587" rx="1.50794" transform="rotate(-90 30.8281 93.8105)" fill="#EBE7FD"/>
<rect x="30.8672" y="87.4609" width="2.93651" height="2.93651" rx="1.46825" transform="rotate(-90 30.8672 87.4609)" fill="#EBE7FD"/>
<rect x="30.9062" y="81.1914" width="2.85714" height="2.85714" rx="1.42857" transform="rotate(-90 30.9062 81.1914)" fill="#EBE7FD"/>
<rect x="30.9453" y="75" width="2.77778" height="2.77778" rx="1.38889" transform="rotate(-90 30.9453 75)" fill="#EBE7FD"/>
<rect x="30.9844" y="68.8887" width="2.69841" height="2.69841" rx="1.34921" transform="rotate(-90 30.9844 68.8887)" fill="#EBE7FD"/>
<rect x="31.0234" y="62.8574" width="2.61905" height="2.61905" rx="1.30952" transform="rotate(-90 31.0234 62.8574)" fill="#EBE7FD"/>
<rect x="31.0664" y="56.9043" width="2.53968" height="2.53968" rx="1.26984" transform="rotate(-90 31.0664 56.9043)" fill="#EBE7FD"/>
<rect x="31.1055" y="51.0312" width="2.46032" height="2.46032" rx="1.23016" transform="rotate(-90 31.1055 51.0312)" fill="#EBE7FD"/>
<rect x="31.1445" y="45.2383" width="2.38095" height="2.38095" rx="1.19048" transform="rotate(-90 31.1445 45.2383)" fill="#EBE7FD"/>
<rect x="31.1836" y="39.5234" width="2.30159" height="2.30159" rx="1.15079" transform="rotate(-90 31.1836 39.5234)" fill="#EBE7FD"/>
<rect x="31.2227" y="33.8887" width="2.22222" height="2.22222" rx="1.11111" transform="rotate(-90 31.2227 33.8887)" fill="#EBE7FD"/>
<rect x="31.2617" y="28.334" width="2.14286" height="2.14286" rx="1.07143" transform="rotate(-90 31.2617 28.334)" fill="#EBE7FD"/>
<rect x="31.3047" y="22.8574" width="2.06349" height="2.06349" rx="1.03175" transform="rotate(-90 31.3047 22.8574)" fill="#EBE7FD"/>
<rect x="31.3438" y="17.4609" width="1.98413" height="1.98413" rx="0.992063" transform="rotate(-90 31.3438 17.4609)" fill="#EBE7FD"/>
<rect x="31.3828" y="12.1426" width="1.90476" height="1.90476" rx="0.952381" transform="rotate(-90 31.3828 12.1426)" fill="#EBE7FD"/>
<rect x="31.4219" y="6.9043" width="1.8254" height="1.8254" rx="0.912698" transform="rotate(-90 31.4219 6.9043)" fill="#EBE7FD"/>
<rect x="31.4609" y="1.74609" width="1.74603" height="1.74603" rx="0.873016" transform="rotate(-90 31.4609 1.74609)" fill="#EBE7FD"/>
<rect x="37.332" y="120" width="3.33333" height="3.33333" rx="1.66667" transform="rotate(-90 37.332 120)" fill="#EBE7FD"/>
<rect x="37.3711" y="113.334" width="3.25397" height="3.25397" rx="1.62698" transform="rotate(-90 37.3711 113.334)" fill="#EBE7FD"/>
<rect x="37.4102" y="106.746" width="3.1746" height="3.1746" rx="1.5873" transform="rotate(-90 37.4102 106.746)" fill="#EBE7FD"/>
<rect x="37.4492" y="100.238" width="3.09524" height="3.09524" rx="1.54762" transform="rotate(-90 37.4492 100.238)" fill="#EBE7FD"/>
<rect x="37.4922" y="93.8086" width="3.01587" height="3.01587" rx="1.50794" transform="rotate(-90 37.4922 93.8086)" fill="#EBE7FD"/>
<rect x="37.5312" y="87.4609" width="2.93651" height="2.93651" rx="1.46825" transform="rotate(-90 37.5312 87.4609)" fill="#EBE7FD"/>
<rect x="37.5703" y="81.1914" width="2.85714" height="2.85714" rx="1.42857" transform="rotate(-90 37.5703 81.1914)" fill="#EBE7FD"/>
<rect x="37.6094" y="75" width="2.77778" height="2.77778" rx="1.38889" transform="rotate(-90 37.6094 75)" fill="#EBE7FD"/>
<rect x="37.6484" y="68.8887" width="2.69841" height="2.69841" rx="1.34921" transform="rotate(-90 37.6484 68.8887)" fill="#EBE7FD"/>
<rect x="37.6875" y="62.8574" width="2.61905" height="2.61905" rx="1.30952" transform="rotate(-90 37.6875 62.8574)" fill="#EBE7FD"/>
<rect x="37.7305" y="56.9043" width="2.53968" height="2.53968" rx="1.26984" transform="rotate(-90 37.7305 56.9043)" fill="#EBE7FD"/>
<rect x="37.7695" y="51.0312" width="2.46032" height="2.46032" rx="1.23016" transform="rotate(-90 37.7695 51.0312)" fill="#EBE7FD"/>
<rect x="37.8086" y="45.2383" width="2.38095" height="2.38095" rx="1.19048" transform="rotate(-90 37.8086 45.2383)" fill="#EBE7FD"/>
<rect x="37.8477" y="39.5234" width="2.30159" height="2.30159" rx="1.15079" transform="rotate(-90 37.8477 39.5234)" fill="#EBE7FD"/>
<rect x="37.8867" y="33.8887" width="2.22222" height="2.22222" rx="1.11111" transform="rotate(-90 37.8867 33.8887)" fill="#EBE7FD"/>
<rect x="37.9258" y="28.334" width="2.14286" height="2.14286" rx="1.07143" transform="rotate(-90 37.9258 28.334)" fill="#EBE7FD"/>
<rect x="37.9648" y="22.8574" width="2.06349" height="2.06349" rx="1.03175" transform="rotate(-90 37.9648 22.8574)" fill="#EBE7FD"/>
<rect x="38.0078" y="17.4609" width="1.98413" height="1.98413" rx="0.992063" transform="rotate(-90 38.0078 17.4609)" fill="#EBE7FD"/>
<rect x="38.0469" y="12.1426" width="1.90476" height="1.90476" rx="0.952381" transform="rotate(-90 38.0469 12.1426)" fill="#EBE7FD"/>
<rect x="38.0859" y="6.9043" width="1.8254" height="1.8254" rx="0.912698" transform="rotate(-90 38.0859 6.9043)" fill="#EBE7FD"/>
<rect x="38.125" y="1.74609" width="1.74603" height="1.74603" rx="0.873016" transform="rotate(-90 38.125 1.74609)" fill="#EBE7FD"/>
<rect x="44" y="120" width="3.33333" height="3.33333" rx="1.66667" transform="rotate(-90 44 120)" fill="#EBE7FD"/>
<rect x="44.0391" y="113.334" width="3.25397" height="3.25397" rx="1.62698" transform="rotate(-90 44.0391 113.334)" fill="#EBE7FD"/>
<rect x="44.0781" y="106.746" width="3.1746" height="3.1746" rx="1.5873" transform="rotate(-90 44.0781 106.746)" fill="#EBE7FD"/>
<rect x="44.1172" y="100.238" width="3.09524" height="3.09524" rx="1.54762" transform="rotate(-90 44.1172 100.238)" fill="#EBE7FD"/>
<rect x="44.1602" y="93.8105" width="3.01587" height="3.01587" rx="1.50794" transform="rotate(-90 44.1602 93.8105)" fill="#EBE7FD"/>
<rect x="44.1992" y="87.4609" width="2.93651" height="2.93651" rx="1.46825" transform="rotate(-90 44.1992 87.4609)" fill="#EBE7FD"/>
<rect x="44.2383" y="81.1914" width="2.85714" height="2.85714" rx="1.42857" transform="rotate(-90 44.2383 81.1914)" fill="#EBE7FD"/>
<rect x="44.2773" y="75" width="2.77778" height="2.77778" rx="1.38889" transform="rotate(-90 44.2773 75)" fill="#EBE7FD"/>
<rect x="44.3164" y="68.8887" width="2.69841" height="2.69841" rx="1.34921" transform="rotate(-90 44.3164 68.8887)" fill="#EBE7FD"/>
<rect x="44.3555" y="62.8574" width="2.61905" height="2.61905" rx="1.30952" transform="rotate(-90 44.3555 62.8574)" fill="#EBE7FD"/>
<rect x="44.3984" y="56.9043" width="2.53968" height="2.53968" rx="1.26984" transform="rotate(-90 44.3984 56.9043)" fill="#EBE7FD"/>
<rect x="44.4375" y="51.0312" width="2.46032" height="2.46032" rx="1.23016" transform="rotate(-90 44.4375 51.0312)" fill="#EBE7FD"/>
<rect x="44.4766" y="45.2383" width="2.38095" height="2.38095" rx="1.19048" transform="rotate(-90 44.4766 45.2383)" fill="#EBE7FD"/>
<rect x="44.5156" y="39.5234" width="2.30159" height="2.30159" rx="1.15079" transform="rotate(-90 44.5156 39.5234)" fill="#EBE7FD"/>
<rect x="44.5547" y="33.8887" width="2.22222" height="2.22222" rx="1.11111" transform="rotate(-90 44.5547 33.8887)" fill="#EBE7FD"/>
<rect x="44.5938" y="28.334" width="2.14286" height="2.14286" rx="1.07143" transform="rotate(-90 44.5938 28.334)" fill="#EBE7FD"/>
<rect x="44.6367" y="22.8574" width="2.06349" height="2.06349" rx="1.03175" transform="rotate(-90 44.6367 22.8574)" fill="#EBE7FD"/>
<rect x="44.6758" y="17.4609" width="1.98413" height="1.98413" rx="0.992063" transform="rotate(-90 44.6758 17.4609)" fill="#EBE7FD"/>
<rect x="44.7148" y="12.1426" width="1.90476" height="1.90476" rx="0.952381" transform="rotate(-90 44.7148 12.1426)" fill="#EBE7FD"/>
<rect x="44.7539" y="6.9043" width="1.8254" height="1.8254" rx="0.912698" transform="rotate(-90 44.7539 6.9043)" fill="#EBE7FD"/>
<rect x="44.793" y="1.74609" width="1.74603" height="1.74603" rx="0.873016" transform="rotate(-90 44.793 1.74609)" fill="#EBE7FD"/>
<rect x="50.668" y="120" width="3.33333" height="3.33333" rx="1.66667" transform="rotate(-90 50.668 120)" fill="#EBE7FD"/>
<rect x="50.707" y="113.334" width="3.25397" height="3.25397" rx="1.62698" transform="rotate(-90 50.707 113.334)" fill="#EBE7FD"/>
<rect x="50.7461" y="106.746" width="3.1746" height="3.1746" rx="1.5873" transform="rotate(-90 50.7461 106.746)" fill="#EBE7FD"/>
<rect x="50.7852" y="100.238" width="3.09524" height="3.09524" rx="1.54762" transform="rotate(-90 50.7852 100.238)" fill="#EBE7FD"/>
<rect x="50.8281" y="93.8086" width="3.01587" height="3.01587" rx="1.50794" transform="rotate(-90 50.8281 93.8086)" fill="#EBE7FD"/>
<rect x="50.8672" y="87.4609" width="2.93651" height="2.93651" rx="1.46825" transform="rotate(-90 50.8672 87.4609)" fill="#EBE7FD"/>
<rect x="50.9062" y="81.1914" width="2.85714" height="2.85714" rx="1.42857" transform="rotate(-90 50.9062 81.1914)" fill="#EBE7FD"/>
<rect x="50.9453" y="75" width="2.77778" height="2.77778" rx="1.38889" transform="rotate(-90 50.9453 75)" fill="#EBE7FD"/>
<rect x="50.9844" y="68.8887" width="2.69841" height="2.69841" rx="1.34921" transform="rotate(-90 50.9844 68.8887)" fill="#EBE7FD"/>
<rect x="51.0234" y="62.8574" width="2.61905" height="2.61905" rx="1.30952" transform="rotate(-90 51.0234 62.8574)" fill="#EBE7FD"/>
<rect x="51.0664" y="56.9043" width="2.53968" height="2.53968" rx="1.26984" transform="rotate(-90 51.0664 56.9043)" fill="#EBE7FD"/>
<rect x="51.1055" y="51.0312" width="2.46032" height="2.46032" rx="1.23016" transform="rotate(-90 51.1055 51.0312)" fill="#EBE7FD"/>
<rect x="51.1445" y="45.2383" width="2.38095" height="2.38095" rx="1.19048" transform="rotate(-90 51.1445 45.2383)" fill="#EBE7FD"/>
<rect x="51.1836" y="39.5234" width="2.30159" height="2.30159" rx="1.15079" transform="rotate(-90 51.1836 39.5234)" fill="#EBE7FD"/>
<rect x="51.2227" y="33.8887" width="2.22222" height="2.22222" rx="1.11111" transform="rotate(-90 51.2227 33.8887)" fill="#EBE7FD"/>
<rect x="51.2617" y="28.334" width="2.14286" height="2.14286" rx="1.07143" transform="rotate(-90 51.2617 28.334)" fill="#EBE7FD"/>
<rect x="51.3047" y="22.8574" width="2.06349" height="2.06349" rx="1.03175" transform="rotate(-90 51.3047 22.8574)" fill="#EBE7FD"/>
<rect x="51.3438" y="17.4609" width="1.98413" height="1.98413" rx="0.992063" transform="rotate(-90 51.3438 17.4609)" fill="#EBE7FD"/>
<rect x="51.3828" y="12.1426" width="1.90476" height="1.90476" rx="0.952381" transform="rotate(-90 51.3828 12.1426)" fill="#EBE7FD"/>
<rect x="51.4219" y="6.9043" width="1.8254" height="1.8254" rx="0.912698" transform="rotate(-90 51.4219 6.9043)" fill="#EBE7FD"/>
<rect x="51.4609" y="1.74609" width="1.74603" height="1.74603" rx="0.873016" transform="rotate(-90 51.4609 1.74609)" fill="#EBE7FD"/>
<rect x="57.332" y="120" width="3.33333" height="3.33333" rx="1.66667" transform="rotate(-90 57.332 120)" fill="#EBE7FD"/>
<rect x="57.3711" y="113.334" width="3.25397" height="3.25397" rx="1.62698" transform="rotate(-90 57.3711 113.334)" fill="#EBE7FD"/>
<rect x="57.4102" y="106.746" width="3.1746" height="3.1746" rx="1.5873" transform="rotate(-90 57.4102 106.746)" fill="#EBE7FD"/>
<rect x="57.4492" y="100.238" width="3.09524" height="3.09524" rx="1.54762" transform="rotate(-90 57.4492 100.238)" fill="#EBE7FD"/>
<rect x="57.4922" y="93.8105" width="3.01587" height="3.01587" rx="1.50794" transform="rotate(-90 57.4922 93.8105)" fill="#EBE7FD"/>
<rect x="57.5312" y="87.4609" width="2.93651" height="2.93651" rx="1.46825" transform="rotate(-90 57.5312 87.4609)" fill="#EBE7FD"/>
<rect x="57.5703" y="81.1914" width="2.85714" height="2.85714" rx="1.42857" transform="rotate(-90 57.5703 81.1914)" fill="#EBE7FD"/>
<rect x="57.6094" y="75" width="2.77778" height="2.77778" rx="1.38889" transform="rotate(-90 57.6094 75)" fill="#EBE7FD"/>
<rect x="57.6484" y="68.8887" width="2.69841" height="2.69841" rx="1.34921" transform="rotate(-90 57.6484 68.8887)" fill="#EBE7FD"/>
<rect x="57.6875" y="62.8574" width="2.61905" height="2.61905" rx="1.30952" transform="rotate(-90 57.6875 62.8574)" fill="#EBE7FD"/>
<rect x="57.7305" y="56.9043" width="2.53968" height="2.53968" rx="1.26984" transform="rotate(-90 57.7305 56.9043)" fill="#EBE7FD"/>
<rect x="57.7695" y="51.0312" width="2.46032" height="2.46032" rx="1.23016" transform="rotate(-90 57.7695 51.0312)" fill="#EBE7FD"/>
<rect x="57.8086" y="45.2383" width="2.38095" height="2.38095" rx="1.19048" transform="rotate(-90 57.8086 45.2383)" fill="#EBE7FD"/>
<rect x="57.8477" y="39.5234" width="2.30159" height="2.30159" rx="1.15079" transform="rotate(-90 57.8477 39.5234)" fill="#EBE7FD"/>
<rect x="57.8867" y="33.8887" width="2.22222" height="2.22222" rx="1.11111" transform="rotate(-90 57.8867 33.8887)" fill="#EBE7FD"/>
<rect x="57.9258" y="28.334" width="2.14286" height="2.14286" rx="1.07143" transform="rotate(-90 57.9258 28.334)" fill="#EBE7FD"/>
<rect x="57.9688" y="22.8574" width="2.06349" height="2.06349" rx="1.03175" transform="rotate(-90 57.9688 22.8574)" fill="#EBE7FD"/>
<rect x="58.0078" y="17.4609" width="1.98413" height="1.98413" rx="0.992063" transform="rotate(-90 58.0078 17.4609)" fill="#EBE7FD"/>
<rect x="58.0469" y="12.1426" width="1.90476" height="1.90476" rx="0.952381" transform="rotate(-90 58.0469 12.1426)" fill="#EBE7FD"/>
<rect x="58.0859" y="6.9043" width="1.8254" height="1.8254" rx="0.912698" transform="rotate(-90 58.0859 6.9043)" fill="#EBE7FD"/>
<rect x="58.125" y="1.74609" width="1.74603" height="1.74603" rx="0.873016" transform="rotate(-90 58.125 1.74609)" fill="#EBE7FD"/>
<rect x="64" y="120" width="3.33333" height="3.33333" rx="1.66667" transform="rotate(-90 64 120)" fill="#EBE7FD"/>
<rect x="64.0391" y="113.334" width="3.25397" height="3.25397" rx="1.62698" transform="rotate(-90 64.0391 113.334)" fill="#EBE7FD"/>
<rect x="64.0781" y="106.746" width="3.1746" height="3.1746" rx="1.5873" transform="rotate(-90 64.0781 106.746)" fill="#EBE7FD"/>
<rect x="64.1172" y="100.238" width="3.09524" height="3.09524" rx="1.54762" transform="rotate(-90 64.1172 100.238)" fill="#EBE7FD"/>
<rect x="64.1602" y="93.8086" width="3.01587" height="3.01587" rx="1.50794" transform="rotate(-90 64.1602 93.8086)" fill="#EBE7FD"/>
<rect x="64.1992" y="87.4609" width="2.93651" height="2.93651" rx="1.46825" transform="rotate(-90 64.1992 87.4609)" fill="#EBE7FD"/>
<rect x="64.2383" y="81.1914" width="2.85714" height="2.85714" rx="1.42857" transform="rotate(-90 64.2383 81.1914)" fill="#EBE7FD"/>
<rect x="64.2773" y="75" width="2.77778" height="2.77778" rx="1.38889" transform="rotate(-90 64.2773 75)" fill="#EBE7FD"/>
<rect x="64.3164" y="68.8887" width="2.69841" height="2.69841" rx="1.34921" transform="rotate(-90 64.3164 68.8887)" fill="#EBE7FD"/>
<rect x="64.3555" y="62.8574" width="2.61905" height="2.61905" rx="1.30952" transform="rotate(-90 64.3555 62.8574)" fill="#EBE7FD"/>
<rect x="64.3984" y="56.9043" width="2.53968" height="2.53968" rx="1.26984" transform="rotate(-90 64.3984 56.9043)" fill="#EBE7FD"/>
<rect x="64.4375" y="51.0312" width="2.46032" height="2.46032" rx="1.23016" transform="rotate(-90 64.4375 51.0312)" fill="#EBE7FD"/>
<rect x="64.4766" y="45.2383" width="2.38095" height="2.38095" rx="1.19048" transform="rotate(-90 64.4766 45.2383)" fill="#EBE7FD"/>
<rect x="64.5156" y="39.5234" width="2.30159" height="2.30159" rx="1.15079" transform="rotate(-90 64.5156 39.5234)" fill="#EBE7FD"/>
<rect x="64.5547" y="33.8887" width="2.22222" height="2.22222" rx="1.11111" transform="rotate(-90 64.5547 33.8887)" fill="#EBE7FD"/>
<rect x="64.5938" y="28.334" width="2.14286" height="2.14286" rx="1.07143" transform="rotate(-90 64.5938 28.334)" fill="#EBE7FD"/>
<rect x="64.6328" y="22.8574" width="2.06349" height="2.06349" rx="1.03175" transform="rotate(-90 64.6328 22.8574)" fill="#EBE7FD"/>
<rect x="64.6758" y="17.4609" width="1.98413" height="1.98413" rx="0.992063" transform="rotate(-90 64.6758 17.4609)" fill="#EBE7FD"/>
<rect x="64.7148" y="12.1426" width="1.90476" height="1.90476" rx="0.952381" transform="rotate(-90 64.7148 12.1426)" fill="#EBE7FD"/>
<rect x="64.7539" y="6.9043" width="1.8254" height="1.8254" rx="0.912698" transform="rotate(-90 64.7539 6.9043)" fill="#EBE7FD"/>
<rect x="64.793" y="1.74609" width="1.74603" height="1.74603" rx="0.873016" transform="rotate(-90 64.793 1.74609)" fill="#EBE7FD"/>
<rect x="70.668" y="120" width="3.33333" height="3.33333" rx="1.66667" transform="rotate(-90 70.668 120)" fill="#EBE7FD"/>
<rect x="70.707" y="113.334" width="3.25397" height="3.25397" rx="1.62698" transform="rotate(-90 70.707 113.334)" fill="#EBE7FD"/>
<rect x="70.7461" y="106.746" width="3.1746" height="3.1746" rx="1.5873" transform="rotate(-90 70.7461 106.746)" fill="#EBE7FD"/>
<rect x="70.7852" y="100.238" width="3.09524" height="3.09524" rx="1.54762" transform="rotate(-90 70.7852 100.238)" fill="#EBE7FD"/>
<rect x="70.8281" y="93.8105" width="3.01587" height="3.01587" rx="1.50794" transform="rotate(-90 70.8281 93.8105)" fill="#EBE7FD"/>
<rect x="70.8672" y="87.4609" width="2.93651" height="2.93651" rx="1.46825" transform="rotate(-90 70.8672 87.4609)" fill="#EBE7FD"/>
<rect x="70.9062" y="81.1914" width="2.85714" height="2.85714" rx="1.42857" transform="rotate(-90 70.9062 81.1914)" fill="#EBE7FD"/>
<rect x="70.9453" y="75" width="2.77778" height="2.77778" rx="1.38889" transform="rotate(-90 70.9453 75)" fill="#EBE7FD"/>
<rect x="70.9844" y="68.8887" width="2.69841" height="2.69841" rx="1.34921" transform="rotate(-90 70.9844 68.8887)" fill="#EBE7FD"/>
<rect x="71.0234" y="62.8574" width="2.61905" height="2.61905" rx="1.30952" transform="rotate(-90 71.0234 62.8574)" fill="#EBE7FD"/>
<rect x="71.0664" y="56.9043" width="2.53968" height="2.53968" rx="1.26984" transform="rotate(-90 71.0664 56.9043)" fill="#EBE7FD"/>
<rect x="71.1055" y="51.0312" width="2.46032" height="2.46032" rx="1.23016" transform="rotate(-90 71.1055 51.0312)" fill="#EBE7FD"/>
<rect x="71.1445" y="45.2383" width="2.38095" height="2.38095" rx="1.19048" transform="rotate(-90 71.1445 45.2383)" fill="#EBE7FD"/>
<rect x="71.1836" y="39.5234" width="2.30159" height="2.30159" rx="1.15079" transform="rotate(-90 71.1836 39.5234)" fill="#EBE7FD"/>
<rect x="71.2227" y="33.8887" width="2.22222" height="2.22222" rx="1.11111" transform="rotate(-90 71.2227 33.8887)" fill="#EBE7FD"/>
<rect x="71.2617" y="28.334" width="2.14286" height="2.14286" rx="1.07143" transform="rotate(-90 71.2617 28.334)" fill="#EBE7FD"/>
<rect x="71.3047" y="22.8574" width="2.06349" height="2.06349" rx="1.03175" transform="rotate(-90 71.3047 22.8574)" fill="#EBE7FD"/>
<rect x="71.3438" y="17.4609" width="1.98413" height="1.98413" rx="0.992063" transform="rotate(-90 71.3438 17.4609)" fill="#EBE7FD"/>
<rect x="71.3828" y="12.1426" width="1.90476" height="1.90476" rx="0.952381" transform="rotate(-90 71.3828 12.1426)" fill="#EBE7FD"/>
<rect x="71.4219" y="6.9043" width="1.8254" height="1.8254" rx="0.912698" transform="rotate(-90 71.4219 6.9043)" fill="#EBE7FD"/>
<rect x="71.4609" y="1.74609" width="1.74603" height="1.74603" rx="0.873016" transform="rotate(-90 71.4609 1.74609)" fill="#EBE7FD"/>
</svg>
