<svg width="344" height="80" viewBox="0 0 344 80" fill="none" xmlns="http://www.w3.org/2000/svg">
<g opacity="0.06">
<path d="M-4.15625 15.6772L7.65008 -4L19.4564 15.6772C10.5238 13.0218 5.45383 13.0428 -4.15625 15.6772Z" fill="white"/>
<path d="M19.457 23.5493L7.6507 43.2266L-4.15563 23.5493C4.77695 26.2048 9.84695 26.1837 19.457 23.5493Z" fill="white"/>
<path d="M23.3916 43.2241L35.1979 23.5469L47.0043 43.2241C38.0717 40.5687 33.0017 40.5897 23.3916 43.2241Z" fill="white"/>
<path d="M50.9404 15.6772L62.7468 -4L74.5531 15.6772C65.6205 13.0218 60.5505 13.0428 50.9404 15.6772Z" fill="white"/>
<path d="M74.5537 23.5493L62.7474 43.2266L50.941 23.5493C59.8736 26.2048 64.9436 26.1837 74.5537 23.5493Z" fill="white"/>
<path d="M47.0049 -4.00144L35.1985 15.6758L23.3922 -4.00144C32.3248 -1.346 37.3948 -1.36705 47.0049 -4.00144Z" fill="white"/>
<path d="M78.4902 43.2241L90.2966 23.5469L102.103 43.2241C93.1703 40.5687 88.1003 40.5897 78.4902 43.2241Z" fill="white"/>
<path d="M106.039 15.6772L117.845 -4L129.652 15.6772C120.719 13.0218 115.649 13.0428 106.039 15.6772Z" fill="white"/>
<path d="M129.652 23.5493L117.846 43.2266L106.04 23.5493C114.972 26.2048 120.042 26.1837 129.652 23.5493Z" fill="white"/>
<path d="M102.104 -4.00144L90.2972 15.6758L78.4909 -4.00144C87.4234 -1.346 92.4934 -1.36705 102.104 -4.00144Z" fill="white"/>
<path d="M133.588 43.2241L145.394 23.5469L157.201 43.2241C148.268 40.5687 143.198 40.5897 133.588 43.2241Z" fill="white"/>
<path d="M161.137 15.6772L172.943 -4L184.749 15.6772C175.817 13.0218 170.747 13.0428 161.137 15.6772Z" fill="white"/>
<path d="M184.75 23.5493L172.944 43.2266L161.137 23.5493C170.07 26.2048 175.14 26.1837 184.75 23.5493Z" fill="white"/>
<path d="M157.201 -4.00144L145.395 15.6758L133.589 -4.00144C142.521 -1.346 147.591 -1.36705 157.201 -4.00144Z" fill="white"/>
<path d="M188.686 43.2241L200.492 23.5469L212.298 43.2241C203.366 40.5687 198.296 40.5897 188.686 43.2241Z" fill="white"/>
<path d="M216.234 15.6772L228.041 -4L239.847 15.6772C230.914 13.0218 225.844 13.0428 216.234 15.6772Z" fill="white"/>
<path d="M239.848 23.5493L228.041 43.2266L216.235 23.5493C225.168 26.2048 230.238 26.1837 239.848 23.5493Z" fill="white"/>
<path d="M212.299 -4.00144L200.492 15.6758L188.686 -4.00144C197.619 -1.346 202.689 -1.36705 212.299 -4.00144Z" fill="white"/>
<path d="M243.784 43.2241L255.591 23.5469L267.397 43.2241C258.464 40.5687 253.394 40.5897 243.784 43.2241Z" fill="white"/>
<path d="M271.333 15.6772L283.139 -4L294.946 15.6772C286.013 13.0218 280.943 13.0428 271.333 15.6772Z" fill="white"/>
<path d="M294.946 23.5493L283.14 43.2266L271.334 23.5493C280.266 26.2048 285.336 26.1837 294.946 23.5493Z" fill="white"/>
<path d="M267.397 -4.00144L255.591 15.6758L243.785 -4.00144C252.717 -1.346 257.787 -1.36705 267.397 -4.00144Z" fill="white"/>
<path d="M298.882 43.2241L310.688 23.5469L322.495 43.2241C313.562 40.5687 308.492 40.5897 298.882 43.2241Z" fill="white"/>
<path d="M326.431 15.6772L338.237 -4L350.043 15.6772C341.111 13.0218 336.041 13.0428 326.431 15.6772Z" fill="white"/>
<path d="M350.044 23.5493L338.238 43.2266L326.431 23.5493C335.364 26.2048 340.434 26.1837 350.044 23.5493Z" fill="white"/>
<path d="M322.495 -4.00144L310.689 15.6758L298.882 -4.00144C307.815 -1.346 312.885 -1.36705 322.495 -4.00144Z" fill="white"/>
<path d="M-4.15723 70.7749L7.64911 51.0977L19.4554 70.7749C10.5229 68.1194 5.45285 68.1405 -4.15723 70.7749Z" fill="white"/>
<path d="M19.4561 78.647L7.64972 98.3242L-4.15661 78.647C4.77598 81.3024 9.84598 81.2814 19.4561 78.647Z" fill="white"/>
<path d="M23.3916 98.3218L35.1979 78.6445L47.0043 98.3218C38.0717 95.6663 33.0017 95.6874 23.3916 98.3218Z" fill="white"/>
<path d="M50.9404 70.7749L62.7468 51.0977L74.5531 70.7749C65.6205 68.1194 60.5505 68.1405 50.9404 70.7749Z" fill="white"/>
<path d="M74.5537 78.647L62.7474 98.3242L50.941 78.647C59.8736 81.3024 64.9436 81.2814 74.5537 78.647Z" fill="white"/>
<path d="M47.0049 51.0962L35.1985 70.7734L23.3922 51.0962C32.3248 53.7517 37.3948 53.7306 47.0049 51.0962Z" fill="white"/>
<path d="M78.4902 98.3218L90.2966 78.6445L102.103 98.3218C93.1703 95.6663 88.1003 95.6874 78.4902 98.3218Z" fill="white"/>
<path d="M106.039 70.7749L117.845 51.0977L129.652 70.7749C120.719 68.1194 115.649 68.1405 106.039 70.7749Z" fill="white"/>
<path d="M129.652 78.647L117.846 98.3242L106.04 78.647C114.972 81.3024 120.042 81.2814 129.652 78.647Z" fill="white"/>
<path d="M102.104 51.0962L90.2972 70.7734L78.4909 51.0962C87.4234 53.7517 92.4934 53.7306 102.104 51.0962Z" fill="white"/>
<path d="M133.588 98.3218L145.394 78.6445L157.201 98.3218C148.268 95.6663 143.198 95.6874 133.588 98.3218Z" fill="white"/>
<path d="M161.137 70.7749L172.943 51.0977L184.749 70.7749C175.817 68.1194 170.747 68.1405 161.137 70.7749Z" fill="white"/>
<path d="M184.75 78.647L172.944 98.3242L161.137 78.647C170.07 81.3024 175.14 81.2814 184.75 78.647Z" fill="white"/>
<path d="M157.201 51.0962L145.395 70.7734L133.589 51.0962C142.521 53.7517 147.591 53.7306 157.201 51.0962Z" fill="white"/>
<path d="M188.686 98.3218L200.492 78.6445L212.298 98.3218C203.366 95.6663 198.296 95.6874 188.686 98.3218Z" fill="white"/>
<path d="M216.234 70.7749L228.041 51.0977L239.847 70.7749C230.914 68.1194 225.844 68.1405 216.234 70.7749Z" fill="white"/>
<path d="M239.848 78.647L228.041 98.3242L216.235 78.647C225.168 81.3024 230.238 81.2814 239.848 78.647Z" fill="white"/>
<path d="M212.299 51.0962L200.492 70.7734L188.686 51.0962C197.619 53.7517 202.689 53.7306 212.299 51.0962Z" fill="white"/>
<path d="M243.784 98.3218L255.591 78.6445L267.397 98.3218C258.464 95.6663 253.394 95.6874 243.784 98.3218Z" fill="white"/>
<path d="M271.333 70.7749L283.139 51.0977L294.946 70.7749C286.013 68.1194 280.943 68.1405 271.333 70.7749Z" fill="white"/>
<path d="M294.946 78.647L283.14 98.3242L271.334 78.647C280.266 81.3024 285.336 81.2814 294.946 78.647Z" fill="white"/>
<path d="M267.397 51.0962L255.591 70.7734L243.785 51.0962C252.717 53.7517 257.787 53.7306 267.397 51.0962Z" fill="white"/>
<path d="M298.882 98.3218L310.688 78.6445L322.495 98.3218C313.562 95.6663 308.492 95.6874 298.882 98.3218Z" fill="white"/>
<path d="M326.431 70.7749L338.237 51.0977L350.043 70.7749C341.111 68.1194 336.041 68.1405 326.431 70.7749Z" fill="white"/>
<path d="M350.044 78.647L338.238 98.3242L326.431 78.647C335.364 81.3024 340.434 81.2814 350.044 78.647Z" fill="white"/>
<path d="M322.495 51.0962L310.689 70.7734L298.882 51.0962C307.815 53.7517 312.885 53.7306 322.495 51.0962Z" fill="white"/>
</g>
</svg>
