<svg width="40" height="40" viewBox="0 0 40 40" fill="none" xmlns="http://www.w3.org/2000/svg">
<g id="reshot-icon-student-3QUJDPNLXF 1">
<g id="23-student">
<path id="Vector" d="M15.1385 15.832C16.4272 15.8304 17.6627 15.3177 18.574 14.4064C19.4852 13.4951 19.9979 12.2597 19.9996 10.9709V8.19314C19.9996 6.9039 19.4874 5.66745 18.5758 4.75582C17.6641 3.84418 16.4277 3.33203 15.1385 3.33203C13.8492 3.33203 12.6128 3.84418 11.7011 4.75582C10.7895 5.66745 10.2773 6.9039 10.2773 8.19314V10.9709C10.279 12.2597 10.7917 13.4951 11.703 14.4064C12.6142 15.3177 13.8497 15.8304 15.1385 15.832ZM15.1385 4.72092C15.9967 4.72365 16.8234 5.04477 17.4584 5.62208C18.0935 6.1994 18.4917 6.99183 18.576 7.84592L16.0905 6.85356C15.9858 6.81209 15.8725 6.79675 15.7604 6.80884C15.6484 6.82094 15.541 6.86012 15.4475 6.923L13.6197 8.13967L11.7197 7.66467C11.8456 6.84723 12.2591 6.10157 12.8858 5.56191C13.5126 5.02225 14.3114 4.72402 15.1385 4.72092ZM11.6662 9.08203L13.5815 9.5612C13.6365 9.57497 13.6929 9.58197 13.7496 9.58203C13.8867 9.58177 14.0207 9.5412 14.135 9.46536L15.9141 8.27925L18.6107 9.35773V10.9709C18.6107 11.8918 18.2449 12.775 17.5937 13.4262C16.9425 14.0773 16.0593 14.4431 15.1385 14.4431C14.2176 14.4431 13.3344 14.0773 12.6832 13.4262C12.0321 12.775 11.6662 11.8918 11.6662 10.9709V9.08203Z" fill="#9E9E9E"/>
<path id="Vector_2" d="M15.139 13.7474C15.6915 13.7474 16.2214 13.5279 16.6121 13.1372C17.0028 12.7465 17.2223 12.2166 17.2223 11.6641H15.8334C15.8334 11.8482 15.7603 12.0249 15.63 12.1551C15.4998 12.2853 15.3232 12.3585 15.139 12.3585C14.9548 12.3585 14.7782 12.2853 14.648 12.1551C14.5177 12.0249 14.4446 11.8482 14.4446 11.6641H13.0557C13.0557 12.2166 13.2752 12.7465 13.6659 13.1372C14.0566 13.5279 14.5865 13.7474 15.139 13.7474Z" fill="#9E9E9E"/>
<path id="Vector_3" d="M10.2778 29.7227H7.5V31.1115H10.2778V29.7227Z" fill="#9E9E9E"/>
<path id="Vector_4" d="M13.0556 32.5H7.5V33.8889H13.0556V32.5Z" fill="#9E9E9E"/>
<path id="Vector_5" d="M35.9719 18.6081C36.1561 18.6081 36.3327 18.5349 36.4629 18.4047C36.5932 18.2744 36.6663 18.0978 36.6663 17.9136V15.1359C36.6663 14.9517 36.5932 14.775 36.4629 14.6448C36.3327 14.5146 36.1561 14.4414 35.9719 14.4414H27.6386C27.4544 14.4414 27.2778 14.5146 27.1475 14.6448C27.0173 14.775 26.9441 14.9517 26.9441 15.1359V17.2192H25.5552C25.3711 17.2192 25.1944 17.2923 25.0642 17.4226C24.9339 17.5528 24.8608 17.7295 24.8608 17.9136V20.6914C24.8608 20.8756 24.9339 21.0522 25.0642 21.1825C25.1944 21.3127 25.3711 21.3859 25.5552 21.3859H26.9441V22.7747H26.2497C26.0655 22.7747 25.8889 22.8479 25.7586 22.9781C25.6284 23.1084 25.5552 23.285 25.5552 23.4692V25.5525H25.374L22.7469 17.015C22.7192 16.9253 22.6736 16.8421 22.6129 16.7705C22.5521 16.6988 22.4775 16.6403 22.3934 16.5984L19.6156 15.2095V15.2178C19.4747 15.1295 19.3045 15.1005 19.1423 15.1372C18.9801 15.1739 18.8389 15.2733 18.7497 15.4136L15.1386 20.2282L11.5275 15.4136C11.4384 15.2741 11.2979 15.1752 11.1365 15.1385C10.9751 15.1017 10.8057 15.1299 10.665 15.2171V15.2088L7.88717 16.5977C7.80314 16.6396 7.72849 16.6981 7.66774 16.7698C7.60698 16.8414 7.56138 16.9246 7.5337 17.0143L4.90315 25.5525H3.33301V26.9414H4.7219V35.9692C4.7219 36.1534 4.79506 36.33 4.92529 36.4602C5.05553 36.5905 5.23216 36.6636 5.41634 36.6636H34.583C34.7672 36.6636 34.9438 36.5905 35.0741 36.4602C35.2043 36.33 35.2775 36.1534 35.2775 35.9692V26.9414H36.6663V25.5525H35.2775V24.1636H35.9719C36.1561 24.1636 36.3327 24.0905 36.4629 23.9602C36.5932 23.83 36.6663 23.6534 36.6663 23.4692V20.6914C36.6663 20.5072 36.5932 20.3306 36.4629 20.2004C36.3327 20.0701 36.1561 19.997 35.9719 19.997H34.583V18.6081H35.9719ZM28.333 15.8303H32.4997V17.2192H28.333V15.8303ZM33.1941 18.6081V19.997H31.8052V18.6081H33.1941ZM26.2497 19.997V18.6081H30.4163V19.997H26.2497ZM29.0275 21.3859V22.7747H28.333V21.3859H29.0275ZM26.9441 24.1636H31.8052V25.5525H26.9441V24.1636ZM18.6108 17.9136V19.4963L17.0281 20.024L18.6108 17.9136ZM19.5247 20.6553C19.6629 20.6093 19.7831 20.5209 19.8684 20.4028C19.9536 20.2846 19.9996 20.1427 19.9997 19.997V16.9539L21.5066 17.7053L23.9205 25.5525H21.3886V22.7747H19.9997V25.5525H17.6795L16.074 21.806L19.5247 20.6553ZM16.1691 25.5525H14.108L15.1386 23.149L16.1691 25.5525ZM11.6663 17.9136L13.249 20.024L11.6663 19.4963V17.9136ZM8.77051 17.7053L10.2775 16.9539V19.997C10.2776 20.1427 10.3235 20.2846 10.4087 20.4028C10.494 20.5209 10.6142 20.6093 10.7525 20.6553L14.2031 21.806L12.5976 25.5525H10.2775V22.7747H8.88856V25.5525H6.35662L8.77051 17.7053ZM33.8886 35.2747H6.11079V26.9414H33.8886V35.2747ZM33.8886 25.5525H33.1941V24.1636H33.8886V25.5525ZM35.2775 21.3859V22.7747H30.4163V21.3859H35.2775ZM33.8886 17.2192V15.8303H35.2775V17.2192H33.8886Z" fill="#9E9E9E"/>
</g>
</g>
</svg>
