<svg width="40" height="40" viewBox="0 0 40 40" fill="none" xmlns="http://www.w3.org/2000/svg">
<g id="reshot-icon-judge-CTHFSZP2YL 1">
<g id="Group">
<g id="Group_2">
<path id="Vector" d="M38.3926 36.8438H1.45801V38.0026H38.3926V36.8438Z" fill="#9E9E9E"/>
</g>
<g id="Group_3">
<path id="Vector_2" d="M36.9835 35.644H35.8246V33.8872C35.8246 33.7227 35.6945 33.5885 35.5343 33.5885H22.9296C22.7694 33.5885 22.6393 33.7227 22.6393 33.8872V35.644H21.4805V33.8872C21.4805 33.0833 22.1306 32.4297 22.9296 32.4297H35.5343C36.3333 32.4297 36.9835 33.0833 36.9835 33.8872V35.644Z" fill="#9E9E9E"/>
</g>
<g id="Group_4">
<path id="Vector_3" d="M34.5175 33.5896H23.9413C23.1423 33.5896 22.4922 32.9354 22.4922 32.1315V30.8136C22.4922 30.0096 23.1423 29.3555 23.9413 29.3555H34.5175C35.3162 29.3555 35.966 30.0096 35.966 30.8136V32.1315C35.966 32.9357 35.3162 33.5896 34.5175 33.5896ZM23.9413 30.5143C23.7811 30.5143 23.651 30.6484 23.651 30.8136V32.1315C23.651 32.2966 23.7811 32.4307 23.9413 32.4307H34.5175C34.6774 32.4307 34.8072 32.2966 34.8072 32.1315V30.8136C34.8072 30.6484 34.6774 30.5143 34.5175 30.5143H23.9413Z" fill="#9E9E9E"/>
</g>
<g id="Group_5">
<g id="Group_6">
<g id="Group_7">
<path id="Vector_4" d="M27.6046 22.9993C27.2445 22.9993 26.9064 22.858 26.6523 22.601L24.941 20.8717C24.4207 20.3462 24.4207 19.4901 24.941 18.9643L32.0566 11.7731C32.3098 11.5167 32.6479 11.375 33.008 11.375C33.3681 11.375 33.7062 11.5164 33.9603 11.7731L35.6719 13.5032C36.1913 14.0296 36.1911 14.8848 35.6722 15.4101L28.5569 22.601C28.3025 22.8577 27.9644 22.9993 27.6046 22.9993ZM33.0083 12.5338C32.9747 12.5338 32.9252 12.5431 32.8814 12.5877L25.765 19.7789C25.6891 19.8554 25.6891 19.98 25.765 20.0565L27.4763 21.7855C27.5206 21.8307 27.5707 21.8402 27.6046 21.8402C27.6385 21.8402 27.6886 21.8307 27.733 21.7855L34.8482 14.5954C34.9224 14.5204 34.9221 14.3932 34.8477 14.3179L33.1366 12.5883C33.0923 12.5431 33.0425 12.5338 33.0083 12.5338Z" fill="#9E9E9E"/>
</g>
<g id="Group_8">
<path id="Vector_5" d="M18.3283 13.6238C17.9684 13.6238 17.6303 13.4827 17.3763 13.226L15.6647 11.4964C15.1443 10.9697 15.1443 10.1139 15.6647 9.58839L22.7794 2.39806C23.0334 2.14138 23.3718 2 23.7322 2C24.0926 2 24.431 2.14138 24.6848 2.39835L26.3961 4.12763C26.9161 4.65346 26.9161 5.50897 26.3961 6.0348L19.2802 13.2257C19.0265 13.4824 18.6884 13.6238 18.3283 13.6238ZM23.7322 3.15884C23.6977 3.15884 23.6476 3.1684 23.6033 3.21331L16.4889 10.4039C16.413 10.4804 16.4133 10.6053 16.4889 10.682L18.2002 12.4113C18.2442 12.4559 18.2944 12.4655 18.3283 12.4655C18.3621 12.4655 18.4123 12.4562 18.4566 12.411L25.5725 5.21984C25.6481 5.14336 25.6481 5.01907 25.5725 4.94259L23.8609 3.21302C23.8162 3.16811 23.7664 3.15884 23.7322 3.15884Z" fill="#9E9E9E"/>
</g>
</g>
<g id="Group_9">
<g id="Group_10">
<path id="Vector_6" d="M26.5924 18.4038L19.8301 11.5703L19.0064 12.3854L25.7687 19.2189L26.5924 18.4038Z" fill="#9E9E9E"/>
</g>
<g id="Group_11">
<path id="Vector_7" d="M32.3317 12.6069L25.5693 5.77344L24.7456 6.58857L31.5079 13.422L32.3317 12.6069Z" fill="#9E9E9E"/>
</g>
</g>
<g id="Group_12">
<path id="Vector_8" d="M9.32709 32.0127L6.36133 29.0147L21.7235 13.4883L24.6904 16.4865L9.32709 32.0127ZM7.99153 29.0147L9.32709 30.3648L23.0602 16.4862L21.7235 15.1356L7.99153 29.0147Z" fill="#9E9E9E"/>
</g>
<g id="Group_13">
<path id="Vector_9" d="M7.61715 34.8166L3.58496 30.7412L6.6417 27.6523L10.6733 31.7274L7.61715 34.8166ZM5.21516 30.7412L7.61715 33.1687L9.04311 31.7274L6.6417 29.2999L5.21516 30.7412Z" fill="#9E9E9E"/>
</g>
<g id="Group_14">
<path id="Vector_10" d="M21.2616 19.0277L19.2119 16.957L18.3883 17.7723L20.4381 19.843L21.2616 19.0277Z" fill="#9E9E9E"/>
</g>
<g id="Group_15">
<path id="Vector_11" d="M19.1125 21.2034L17.0635 19.1328L16.2398 19.9479L18.2888 22.0185L19.1125 21.2034Z" fill="#9E9E9E"/>
</g>
<g id="Group_16">
<path id="Vector_12" d="M27.3813 13.6465L24.5381 10.7734L23.7144 11.5886L26.5576 14.4617L27.3813 13.6465Z" fill="#9E9E9E"/>
</g>
</g>
<g id="Group_17">
<g id="Group_18">
<path id="Vector_13" d="M38.5419 23.3242H35.2441V24.4831H38.5419V23.3242Z" fill="#9E9E9E"/>
</g>
<g id="Group_19">
<g id="Group_20">
<path id="Vector_14" d="M37.8392 20.1117L37.2129 19.1367L34.4297 20.9248L35.0561 21.8997L37.8392 20.1117Z" fill="#9E9E9E"/>
</g>
<g id="Group_21">
<path id="Vector_15" d="M37.842 27.6909L35.0586 25.9023L34.4321 26.8773L37.2156 28.6658L37.842 27.6909Z" fill="#9E9E9E"/>
</g>
</g>
</g>
<g id="Group_22">
<g id="Group_23">
<path id="Vector_16" d="M23.7213 23.3203H20.4238V24.4792H23.7213V23.3203Z" fill="#9E9E9E"/>
</g>
<g id="Group_24">
<g id="Group_25">
<path id="Vector_17" d="M24.5316 26.8695L23.9053 25.8945L21.1221 27.6826L21.7484 28.6575L24.5316 26.8695Z" fill="#9E9E9E"/>
</g>
</g>
</g>
</g>
</g>
</svg>
