<svg width="40" height="40" viewBox="0 0 40 40" fill="none" xmlns="http://www.w3.org/2000/svg">
<g id="reshot-icon-contract-UK36F4RCD8 1">
<g id="Group">
<path id="Vector" d="M29.9869 32.8882C29.8411 32.8882 29.697 32.8358 29.5834 32.7353C29.4018 32.5744 29.3332 32.3211 29.4087 32.0905C29.4531 31.9549 29.4775 31.8151 29.4862 31.6753C29.0976 32.2607 28.6042 32.722 28.0251 32.8492C27.6221 32.9377 27.0152 32.9036 26.4133 32.2385C25.4094 31.1293 26.094 29.8852 26.5939 28.9768C27.1833 27.9055 27.1667 27.7357 26.8483 27.5268C26.6032 27.366 26.1842 27.4676 25.8761 27.5812C23.9346 28.2967 21.284 31.2378 21.0615 32.0007C20.9674 32.3232 20.6296 32.5084 20.3072 32.4143C19.9848 32.3202 19.7995 31.9825 19.8936 31.66C20.256 30.4177 23.2562 27.2503 25.4555 26.4397C26.2855 26.1337 26.9788 26.1573 27.5158 26.5097C28.1124 26.9012 28.3697 27.4618 28.26 28.1309C28.1803 28.6172 27.9157 29.0981 27.6598 29.5631C26.9691 30.8184 27.0286 31.1051 27.3154 31.422C27.5701 31.7034 27.7164 31.6713 27.7644 31.6608C28.1299 31.5806 28.7151 30.836 29.0616 29.729C29.1331 29.5003 29.3323 29.3351 29.5701 29.3068C29.8083 29.2783 30.0403 29.3924 30.1636 29.5977C30.2123 29.6787 30.4637 30.1165 30.6071 30.7233C30.7862 30.38 30.9402 29.9919 31.0778 29.6145C31.1438 29.4336 31.2914 29.2946 31.476 29.2397C31.6606 29.185 31.8603 29.2208 32.0142 29.3363C32.2921 29.5447 33.2042 30.3022 33.2751 31.2993C33.3006 31.6586 33.223 32.195 32.7079 32.71C32.4703 32.9475 32.0851 32.9475 31.8477 32.71C31.6102 32.4725 31.6102 32.0873 31.8477 31.8498C32.0544 31.6432 32.0688 31.4859 32.0616 31.3856C32.0506 31.2298 31.9733 31.0654 31.8676 30.9108C31.4897 31.7466 30.9998 32.4775 30.2444 32.8308C30.1623 32.8694 30.0743 32.8882 29.9869 32.8882Z" fill="#9E9E9E"/>
<path id="Vector_2" d="M22.0189 33.8735C22.0091 33.8735 21.9992 33.8733 21.9894 33.8729C21.6539 33.8568 21.3949 33.5719 21.4109 33.2363C21.4434 32.5553 22.4416 31.2945 22.6413 31.0487C23.2363 30.3167 24.1176 29.4209 24.9379 29.3102C25.2712 29.2654 25.5771 29.4988 25.622 29.8317C25.6669 30.1646 25.4335 30.4709 25.1005 30.5158C24.8637 30.5477 24.3078 30.9448 23.6469 31.741C23.0431 32.4684 22.671 33.1357 22.6244 33.3187C22.5968 33.6326 22.3334 33.8735 22.0189 33.8735Z" fill="#9E9E9E"/>
</g>
<g id="Group_2">
<path id="Vector_3" d="M31.2461 8.31413H11.8455C11.5096 8.31413 11.2373 8.04178 11.2373 7.7059C11.2373 7.36994 11.5097 7.09766 11.8455 7.09766H31.2461C31.582 7.09766 31.8543 7.37001 31.8543 7.7059C31.8543 8.04178 31.582 8.31413 31.2461 8.31413Z" fill="#9E9E9E"/>
<path id="Vector_4" d="M31.2456 11.1579H23.9784C23.6424 11.1579 23.3701 10.8855 23.3701 10.5496C23.3701 10.2138 23.6425 9.94141 23.9784 9.94141H31.2457C31.5816 9.94141 31.8539 10.2138 31.8539 10.5496C31.8538 10.8856 31.5815 11.1579 31.2456 11.1579Z" fill="#9E9E9E"/>
<path id="Vector_5" d="M22.1134 11.1579H11.8455C11.5096 11.1579 11.2373 10.8855 11.2373 10.5496C11.2373 10.2138 11.5097 9.94141 11.8455 9.94141H22.1133C22.4493 9.94141 22.7216 10.2138 22.7216 10.5496C22.7216 10.8856 22.4493 11.1579 22.1134 11.1579Z" fill="#9E9E9E"/>
<path id="Vector_6" d="M31.2461 14.0055H11.8455C11.5096 14.0055 11.2373 13.7332 11.2373 13.3973C11.2373 13.0614 11.5097 12.7891 11.8455 12.7891H31.2461C31.582 12.7891 31.8543 13.0614 31.8543 13.3973C31.8543 13.7332 31.582 14.0055 31.2461 14.0055Z" fill="#9E9E9E"/>
<path id="Vector_7" d="M31.2459 16.8493H26.8172C26.4813 16.8493 26.209 16.5769 26.209 16.2411C26.209 15.9052 26.4813 15.6328 26.8172 15.6328H31.2459C31.5819 15.6328 31.8542 15.9052 31.8542 16.2411C31.8541 16.5769 31.5818 16.8493 31.2459 16.8493Z" fill="#9E9E9E"/>
<path id="Vector_8" d="M24.9521 16.8493H11.8455C11.5096 16.8493 11.2373 16.5769 11.2373 16.2411C11.2373 15.9052 11.5097 15.6328 11.8455 15.6328H24.9521C25.288 15.6328 25.5603 15.9052 25.5603 16.2411C25.5603 16.5769 25.288 16.8493 24.9521 16.8493Z" fill="#9E9E9E"/>
<path id="Vector_9" d="M31.2458 19.693H20.41C20.074 19.693 19.8018 19.4207 19.8018 19.0848C19.8018 18.7489 20.0741 18.4766 20.41 18.4766H31.2457C31.5817 18.4766 31.854 18.7489 31.854 19.0848C31.854 19.4207 31.5817 19.693 31.2458 19.693Z" fill="#9E9E9E"/>
<path id="Vector_10" d="M18.626 19.693H11.8455C11.5096 19.693 11.2373 19.4207 11.2373 19.0848C11.2373 18.7489 11.5097 18.4766 11.8455 18.4766H18.626C18.962 18.4766 19.2342 18.7489 19.2342 19.0848C19.2342 19.4207 18.962 19.693 18.626 19.693Z" fill="#9E9E9E"/>
<path id="Vector_11" d="M26.3308 22.5368H11.8455C11.5096 22.5368 11.2373 22.2644 11.2373 21.9286C11.2373 21.5926 11.5097 21.3203 11.8455 21.3203H26.3308C26.6667 21.3203 26.939 21.5927 26.939 21.9286C26.939 22.2644 26.6667 22.5368 26.3308 22.5368Z" fill="#9E9E9E"/>
</g>
<path id="Vector_12" d="M6.0293 25.54L8.22168 23.3477L6.80132 21.9273L4.60894 24.1197L6.0293 25.54Z" fill="#9E9E9E"/>
<g id="Group_3">
<path id="Vector_13" d="M10.8263 30.339L11.6865 31.1992L13.8789 29.0068L13.0187 28.1466L10.8263 30.339Z" fill="#9E9E9E"/>
<path id="Vector_14" d="M9.27357 28.7804L10.1338 29.6406L12.3262 27.4482L11.4659 26.588L9.27357 28.7804Z" fill="#9E9E9E"/>
</g>
<path id="Vector_15" d="M35.3918 2H7.69953C7.36357 2 7.09128 2.27373 7.09128 2.6113V21.3994C7.00299 21.3512 6.90329 21.325 6.80094 21.325C6.6396 21.325 6.48485 21.3894 6.37081 21.5041L4.17819 23.7076C4.06409 23.8223 4 23.9778 4 24.1399C4 24.3021 4.06409 24.4576 4.17819 24.5722L5.16844 25.5674L4.56445 26.1744C4.45035 26.289 4.38626 26.4446 4.38626 26.6067C4.38626 26.7688 4.45035 26.9244 4.56445 27.039L7.09114 29.5783V37.3887C7.09114 37.7263 7.3635 38 7.69939 38H35.3917C35.7277 38 36 37.7263 36 37.3887V2.6113C36.0001 2.27373 35.7277 2 35.3918 2ZM7.09128 27.8492L5.85491 26.6066L6.02876 26.432L7.09121 27.4998L7.09128 27.8492ZM6.45889 25.1351L5.46865 24.1399L6.80094 22.801L7.79111 23.7962L15.3423 31.3851L14.01 32.7241L6.45889 25.1351ZM34.7835 36.7773H8.30785V28.7223L13.5799 34.0209C13.6986 34.1403 13.8544 34.2 14.01 34.2C14.1657 34.2 14.3214 34.1403 14.4402 34.0209L15.1064 33.3514L15.9127 34.1619C16.0315 34.2813 16.1872 34.341 16.3429 34.341C16.4985 34.341 16.6542 34.2813 16.773 34.1619C17.0105 33.9232 17.0105 33.5361 16.773 33.2974L15.9666 32.487L16.6328 31.8175C16.7469 31.7029 16.811 31.5474 16.811 31.3852C16.811 31.2231 16.7469 31.0675 16.6328 30.9529L8.6513 22.9317L8.30771 22.5864V3.22266H34.7835V36.7773Z" fill="#9E9E9E"/>
</g>
</svg>
