<svg width="40" height="40" viewBox="0 0 40 40" fill="none" xmlns="http://www.w3.org/2000/svg">
<g id="reshot-icon-idea-PFZLVDHGR8 1">
<g id="11-idea">
<path id="Vector" d="M27.6181 24.693C27.5939 24.5958 27.5488 24.505 27.4861 24.4268C27.4234 24.3487 27.3446 24.285 27.2549 24.2402L24.4772 22.8513V22.859C24.449 22.8421 24.4197 22.8271 24.3897 22.8138C24.2509 22.767 24.1009 22.7652 23.9611 22.8087C23.8213 22.8523 23.6988 22.9389 23.6112 23.0562L20.0001 27.8708L16.389 23.0562C16.3016 22.9396 16.1797 22.8534 16.0406 22.8099C15.9015 22.7664 15.7523 22.7678 15.614 22.8138C15.5839 22.8271 15.5547 22.8421 15.5265 22.859V22.8513L12.7487 24.2402C12.6591 24.285 12.5802 24.3487 12.5175 24.4268C12.4548 24.505 12.4098 24.5958 12.3855 24.693L9.60773 35.8041C9.58215 35.9062 9.58012 36.0128 9.60179 36.1158C9.62346 36.2188 9.66826 36.3156 9.73282 36.3987C9.79737 36.4819 9.87998 36.5493 9.97441 36.5958C10.0688 36.6423 10.1726 36.6668 10.2779 36.6673H29.7223C29.8279 36.6673 29.932 36.6432 30.0269 36.5969C30.1218 36.5506 30.2048 36.4833 30.2698 36.4001C30.3347 36.3169 30.3798 36.2199 30.4017 36.1167C30.4235 36.0134 30.4216 35.9065 30.3959 35.8041L27.6181 24.693ZM23.4723 25.5562V27.1388L21.8897 27.6666L23.4723 25.5562ZM16.5279 25.5562L18.1105 27.6666L16.5279 27.1388V25.5562ZM15.139 35.2784V31.8062H13.7501V35.2784H11.1675L13.6515 25.3402L15.139 24.5965V27.6395C15.1389 27.7853 15.1848 27.9274 15.2701 28.0457C15.3553 28.164 15.4756 28.2525 15.614 28.2985L19.1411 29.4742L17.4001 35.2784H15.139ZM18.8501 35.2784L20.0001 31.4451L21.1501 35.2784H18.8501ZM26.2501 35.2784V31.8062H24.8612V35.2784H22.6001L20.8591 29.4742L24.3862 28.2985C24.5245 28.2525 24.6449 28.164 24.7301 28.0457C24.8154 27.9274 24.8612 27.7853 24.8612 27.6395V24.5965L26.3487 25.3402L28.8327 35.2784H26.2501Z" fill="#9E9E9E"/>
<path id="Vector_2" d="M35.2774 27.7658V24.8603C35.2774 24.6761 35.2042 24.4995 35.074 24.3693L30.0094 19.3047L32.4865 16.8277C32.9098 17.0829 33.3942 17.219 33.8886 17.2214C34.438 17.2214 34.975 17.0585 35.4318 16.7533C35.8886 16.448 36.2446 16.0142 36.4549 15.5066C36.6651 14.9991 36.7201 14.4405 36.613 13.9017C36.5058 13.3629 36.2412 12.8679 35.8527 12.4794C35.4643 12.091 34.9693 11.8264 34.4305 11.7192C33.8916 11.612 33.3331 11.6671 32.8255 11.8773C32.318 12.0875 31.8841 12.4436 31.5789 12.9004C31.2737 13.3572 31.1108 13.8942 31.1108 14.4436C31.1132 14.9379 31.2493 15.4224 31.5045 15.8457L28.7399 18.6103H23.4719V17.7672C24.9999 16.9875 26.2209 15.7161 26.9384 14.158C27.6558 12.5998 27.8279 10.8454 27.4269 9.17753C27.026 7.50962 26.0752 6.02522 24.7279 4.96342C23.3806 3.90162 21.7151 3.32422 19.9997 3.32422C18.2842 3.32422 16.6187 3.90162 15.2714 4.96342C13.9241 6.02522 12.9734 7.50962 12.5724 9.17753C12.1714 10.8454 12.3435 12.5998 13.061 14.158C13.7784 15.7161 14.9995 16.9875 16.5275 17.7672V18.6103H9.58301V14.4436C9.58297 14.2595 9.50978 14.0829 9.37954 13.9527L8.49482 13.0679C8.75009 12.6446 8.88615 12.1602 8.88857 11.6659C8.88857 11.1165 8.72565 10.5794 8.42043 10.1226C8.1152 9.6658 7.68137 9.30977 7.1738 9.09952C6.66623 8.88928 6.10771 8.83427 5.56887 8.94145C5.03004 9.04863 4.53508 9.31319 4.1466 9.70167C3.75813 10.0901 3.49357 10.5851 3.38639 11.1239C3.27921 11.6628 3.33421 12.2213 3.54446 12.7289C3.7547 13.2364 4.11074 13.6703 4.56754 13.9755C5.02434 14.2807 5.5614 14.4436 6.11079 14.4436C6.6051 14.4412 7.08957 14.3052 7.51287 14.0499L8.19412 14.7311V19.0172L4.92537 22.286C4.79513 22.4162 4.72194 22.5928 4.7219 22.777V24.9881C4.25856 25.1519 3.86804 25.4742 3.61938 25.8981C3.37071 26.322 3.27991 26.8202 3.36302 27.3046C3.44612 27.7889 3.69778 28.2283 4.07353 28.5451C4.44927 28.8619 4.9249 29.0356 5.41634 29.0356C5.90779 29.0356 6.38342 28.8619 6.75916 28.5451C7.13491 28.2283 7.38657 27.7889 7.46967 27.3046C7.55278 26.8202 7.46198 26.322 7.21331 25.8981C6.96465 25.4742 6.57413 25.1519 6.11079 24.9881V23.0645L9.17607 19.9992H16.5275V21.3881C16.5275 21.5723 16.6006 21.7489 16.7308 21.8791C16.8611 22.0094 17.0377 22.0825 17.2219 22.0825H17.3205C17.4453 22.5598 17.6949 22.9952 18.0437 23.344C18.3926 23.6928 18.828 23.9424 19.3052 24.0672V24.8603H20.6941V24.0672C21.1714 23.9424 21.6068 23.6928 21.9556 23.344C22.3044 22.9952 22.554 22.5598 22.6788 22.0825H22.7774C22.9616 22.0825 23.1383 22.0094 23.2685 21.8791C23.3987 21.7489 23.4719 21.5723 23.4719 21.3881V19.9992H28.7399L33.8886 25.1478V27.7658C33.4252 27.9297 33.0347 28.252 32.786 28.6759C32.5374 29.0998 32.4466 29.598 32.5297 30.0823C32.6128 30.5667 32.8644 31.0061 33.2402 31.3229C33.6159 31.6396 34.0916 31.8134 34.583 31.8134C35.0744 31.8134 35.5501 31.6396 35.9258 31.3229C36.3016 31.0061 36.5532 30.5667 36.6363 30.0823C36.7194 29.598 36.6286 29.0998 36.38 28.6759C36.1313 28.252 35.7408 27.9297 35.2774 27.7658ZM33.8886 13.0547C34.1633 13.0547 34.4318 13.1362 34.6602 13.2888C34.8886 13.4414 35.0666 13.6583 35.1717 13.9121C35.2768 14.1659 35.3043 14.4452 35.2508 14.7146C35.1972 14.984 35.0649 15.2315 34.8707 15.4257C34.6764 15.62 34.4289 15.7522 34.1595 15.8058C33.8901 15.8594 33.6108 15.8319 33.3571 15.7268C33.1033 15.6217 32.8864 15.4437 32.7337 15.2153C32.5811 14.9869 32.4997 14.7183 32.4997 14.4436C32.4997 14.0753 32.646 13.722 32.9065 13.4615C33.1669 13.2011 33.5202 13.0547 33.8886 13.0547ZM6.11079 13.0547C5.83609 13.0547 5.56757 12.9733 5.33916 12.8207C5.11076 12.6681 4.93274 12.4511 4.82762 12.1974C4.7225 11.9436 4.695 11.6643 4.74859 11.3949C4.80218 11.1255 4.93446 10.878 5.1287 10.6838C5.32294 10.4895 5.57041 10.3572 5.83983 10.3037C6.10925 10.2501 6.38851 10.2776 6.64229 10.3827C6.89608 10.4878 7.11299 10.6658 7.26561 10.8942C7.41822 11.1226 7.49968 11.3912 7.49968 11.6659C7.49968 12.0342 7.35335 12.3875 7.09288 12.6479C6.83241 12.9084 6.47915 13.0547 6.11079 13.0547ZM5.41634 27.6381C5.279 27.6381 5.14473 27.5973 5.03053 27.521C4.91633 27.4447 4.82732 27.3363 4.77476 27.2094C4.7222 27.0825 4.70845 26.9429 4.73524 26.8081C4.76204 26.6734 4.82818 26.5497 4.9253 26.4526C5.02242 26.3555 5.14616 26.2893 5.28087 26.2625C5.41557 26.2357 5.5552 26.2495 5.6821 26.302C5.80899 26.3546 5.91745 26.4436 5.99375 26.5578C6.07006 26.672 6.11079 26.8063 6.11079 26.9436C6.11079 27.1278 6.03762 27.3044 5.90739 27.4347C5.77716 27.5649 5.60052 27.6381 5.41634 27.6381ZM19.9997 22.777C19.757 22.7762 19.5187 22.7117 19.3088 22.5898C19.0989 22.4679 18.9248 22.293 18.8038 22.0825H21.1955C21.0746 22.293 20.9004 22.4679 20.6905 22.5898C20.4806 22.7117 20.2424 22.7762 19.9997 22.777ZM22.083 20.6936H17.9163V18.3145C19.2772 18.7089 20.7221 18.7089 22.083 18.3145V20.6936ZM20.6941 17.1804V12.3603H21.3886C21.5727 12.3603 21.7494 12.2871 21.8796 12.1569C22.0098 12.0267 22.083 11.85 22.083 11.6659V10.277H20.6941V10.9714H19.3052V10.277H17.9163V11.6659C17.9163 11.85 17.9895 12.0267 18.1197 12.1569C18.25 12.2871 18.4266 12.3603 18.6108 12.3603H19.3052V17.1804C17.7177 17.0029 16.2584 16.2243 15.227 15.0045C14.1957 13.7847 13.6705 12.2163 13.7594 10.6214C13.8482 9.02645 14.5444 7.52609 15.705 6.42843C16.8655 5.33078 18.4023 4.71914 19.9997 4.71914C21.5971 4.71914 23.1338 5.33078 24.2944 6.42843C25.4549 7.52609 26.1511 9.02645 26.24 10.6214C26.3289 12.2163 25.8037 13.7847 24.7723 15.0045C23.7409 16.2243 22.2816 17.0029 20.6941 17.1804ZM34.583 30.4158C34.4457 30.4158 34.3114 30.3751 34.1972 30.2988C34.083 30.2225 33.994 30.114 33.9414 29.9872C33.8889 29.8603 33.8751 29.7206 33.9019 29.5859C33.9287 29.4512 33.9948 29.3275 34.092 29.2304C34.1891 29.1332 34.3128 29.0671 34.4475 29.0403C34.5822 29.0135 34.7219 29.0273 34.8488 29.0798C34.9756 29.1324 35.0841 29.2214 35.1604 29.3356C35.2367 29.4498 35.2774 29.5841 35.2774 29.7214C35.2774 29.9056 35.2043 30.0822 35.074 30.2125C34.9438 30.3427 34.7672 30.4158 34.583 30.4158Z" fill="#9E9E9E"/>
<path id="Vector_3" d="M20 6.10938V7.49826C20.9206 7.49937 21.8031 7.86554 22.454 8.51647C23.1049 9.1674 23.4711 10.0499 23.4722 10.9705H24.8611C24.8596 9.68169 24.347 8.4461 23.4357 7.53479C22.5244 6.62347 21.2888 6.11085 20 6.10938Z" fill="#9E9E9E"/>
</g>
</g>
</svg>
