<svg width="40" height="40" viewBox="0 0 40 40" fill="none" xmlns="http://www.w3.org/2000/svg">
<g id="reshot-icon-search-thinking-74TMXANEZC 1">
<g id="03-search thinking">
<path id="Vector" d="M36.0497 33.0709L32.058 29.0793C31.9278 28.9491 31.7512 28.8759 31.567 28.8759C31.3829 28.8759 31.2063 28.9491 31.0761 29.0793L30.5691 29.5862L29.5309 28.548C30.2886 27.6443 30.8296 26.5793 31.1124 25.4344C31.3953 24.2895 31.4126 23.0951 31.163 21.9425C30.9133 20.79 30.4034 19.7097 29.6722 18.7845C28.941 17.8592 28.0078 17.1135 26.9441 16.6043V5.41537C26.9441 4.86283 26.7246 4.33293 26.3339 3.94223C25.9432 3.55152 25.4133 3.33203 24.8608 3.33203H10.2775C10.2629 3.33203 10.2497 3.33967 10.2351 3.34036C10.1733 3.34434 10.1124 3.35648 10.0538 3.37648C10.0323 3.38411 10.0115 3.38967 9.99065 3.40148C9.91462 3.4348 9.8454 3.48188 9.78648 3.54036L3.53648 9.79037C3.40742 9.91938 3.33433 10.094 3.33301 10.2765V34.582C3.33301 35.1346 3.5525 35.6645 3.9432 36.0552C4.3339 36.4459 4.86381 36.6654 5.41634 36.6654H24.8608C25.4133 36.6654 25.9432 36.4459 26.3339 36.0552C26.7246 35.6645 26.9441 35.1346 26.9441 34.582V30.5612C27.52 30.2857 28.0591 29.9393 28.549 29.53L29.5872 30.5682L29.0802 31.0751C28.9501 31.2053 28.8769 31.3819 28.8769 31.5661C28.8769 31.7502 28.9501 31.9268 29.0802 32.057L33.0719 36.0487C33.2674 36.2442 33.4995 36.3993 33.755 36.5051C34.0105 36.611 34.2843 36.6654 34.5608 36.6654C34.8373 36.6654 35.1111 36.611 35.3666 36.5051C35.622 36.3993 35.8542 36.2442 36.0497 36.0487C36.2452 35.8532 36.4003 35.6211 36.5061 35.3656C36.6119 35.1101 36.6664 34.8363 36.6664 34.5598C36.6664 34.2833 36.6119 34.0095 36.5061 33.754C36.4003 33.4986 36.2452 33.2665 36.0497 33.0709ZM25.5552 34.582C25.5552 34.7662 25.4821 34.9429 25.3518 35.0731C25.2216 35.2033 25.045 35.2765 24.8608 35.2765H5.41634C5.23216 35.2765 5.05553 35.2033 4.9253 35.0731C4.79506 34.9429 4.7219 34.7662 4.7219 34.582V10.564L9.58301 5.70287V9.58203H7.49968V10.9709H10.2775C10.4616 10.9709 10.6383 10.8978 10.7685 10.7675C10.8987 10.6373 10.9719 10.4607 10.9719 10.2765V4.72092H24.8608C25.045 4.72092 25.2216 4.79409 25.3518 4.92432C25.4821 5.05455 25.5552 5.23119 25.5552 5.41537V16.0925C24.9119 15.9219 24.2493 15.8344 23.5837 15.832C23.4407 15.832 23.2997 15.8452 23.1573 15.8529C22.1756 13.9309 20.5371 12.4249 18.5394 11.6082C16.5418 10.7916 14.3175 10.7185 12.2705 11.4024C10.2236 12.0862 8.48981 13.4815 7.38413 15.3349C6.27844 17.1883 5.8742 19.3768 6.24481 21.5029C6.27209 21.6649 6.35592 21.812 6.48141 21.918C6.60691 22.0241 6.76593 22.0822 6.93023 22.082H15.9782C15.8818 22.5765 15.8332 23.079 15.833 23.5827C15.8298 24.7694 16.0999 25.9409 16.6223 27.0065C17.1447 28.072 17.9054 29.003 18.8455 29.7272C19.7856 30.4514 20.8799 30.9494 22.0434 31.1827C23.207 31.416 24.4086 31.3782 25.5552 31.0723V34.582ZM18.1198 16.323L19.0795 17.2827C18.7325 17.5291 18.406 17.8032 18.1032 18.1022C17.3621 18.8409 16.7788 19.7223 16.3886 20.6931H15.833V12.3952C17.2061 12.52 18.5196 13.0149 19.6337 13.8272L18.1198 15.3411C17.9896 15.4713 17.9165 15.6479 17.9165 15.832C17.9165 16.0162 17.9896 16.1928 18.1198 16.323ZM20.6802 14.7445C21.0642 15.1494 21.4025 15.5951 21.6893 16.0737C21.2181 16.1918 20.7593 16.3545 20.3191 16.5598L19.5927 15.832L20.6802 14.7445ZM10.074 18.1188C9.94375 17.9887 9.76715 17.9155 9.58301 17.9155C9.39887 17.9155 9.22227 17.9887 9.09204 18.1188L7.51495 19.6959C7.59392 17.6791 8.47069 15.7762 9.95245 14.4056L11.3788 15.832L10.4809 16.73L11.4629 17.7119L12.8518 16.323C12.9819 16.1928 13.0551 16.0162 13.0551 15.832C13.0551 15.6479 12.9819 15.4713 12.8518 15.3411L11.0608 13.5501C12.0803 12.9007 13.2404 12.5048 14.4441 12.3952V20.6931H8.48162L9.58301 19.5918L10.4809 20.4897L11.4629 19.5077L10.074 18.1188ZM28.0823 28.0813C27.0415 29.1223 25.672 29.7702 24.2071 29.9145C22.7421 30.0589 21.2725 29.6909 20.0485 28.8731C18.8245 28.0554 17.9219 26.8385 17.4946 25.4299C17.0672 24.0213 17.1415 22.5081 17.7047 21.1481C18.268 19.7881 19.2854 18.6655 20.5836 17.9716C21.8818 17.2776 23.3804 17.0553 24.8242 17.3424C26.2679 17.6296 27.5674 18.4085 28.5013 19.5464C29.4351 20.6842 29.9455 22.1107 29.9455 23.5827C29.9479 24.4185 29.7844 25.2465 29.4646 26.0187C29.1448 26.7909 28.6749 27.492 28.0823 28.0813ZM33.0636 34.0765L30.5552 31.5661L31.5691 30.5522L34.0795 33.0626L33.0636 34.0765ZM35.0691 35.0682C34.9345 35.2023 34.7522 35.2777 34.5622 35.2777C34.3721 35.2777 34.1898 35.2023 34.0552 35.0682L34.0476 35.0605L35.0615 34.0466L35.0691 34.0543C35.2033 34.1889 35.2786 34.3712 35.2786 34.5612C35.2786 34.7513 35.2033 34.9336 35.0691 35.0682Z" fill="#1F0990"/>
<path id="Vector_2" d="M20.0986 20.0987L21.0806 21.0806C21.7446 20.4174 22.6448 20.0448 23.5834 20.0448C24.5219 20.0448 25.4221 20.4174 26.0861 21.0806L27.0681 20.0987C26.1436 19.1751 24.8902 18.6562 23.5834 18.6562C22.2765 18.6562 21.0232 19.1751 20.0986 20.0987Z" fill="#1F0990"/>
<path id="Vector_3" d="M11.6659 32.5H6.11035V33.8889H11.6659V32.5Z" fill="#1F0990"/>
<path id="Vector_4" d="M8.88813 29.7227H6.11035V31.1115H8.88813V29.7227Z" fill="#1F0990"/>
</g>
</g>
</svg>
